<svg id="Layer_1" data-name="Layer 1" xmlns="http://www.w3.org/2000/svg" xmlns:xlink="http://www.w3.org/1999/xlink" viewBox="0 0 156.53 100.73"><defs><style>.cls-1{fill:none;}.cls-2{clip-path:url(#clip-path);}.cls-3{fill:#ed3436;}.cls-4{fill:#231f20;}.cls-5{clip-path:url(#clip-path-3);}.cls-6{fill:url(#radial-gradient);}.cls-7{fill:#d0d4d4;}.cls-8{clip-path:url(#clip-path-5);}.cls-9{fill:url(#radial-gradient-2);}</style><clipPath id="clip-path" transform="translate(-1598.29 -866.36)"><rect class="cls-1" x="1579.46" y="819.14" width="195" height="195"/></clipPath><clipPath id="clip-path-3" transform="translate(-1598.29 -866.36)"><path class="cls-1" d="M1599.52,890.71c3.64,5,6.82,12.53,7.65,23.59a66.84,66.84,0,0,1,27.47-14.89c.35-.09.69-.2,1-.31h0c-4-5.53-8-11-12.09-17.5a109,109,0,0,1-24.09,9.11"/></clipPath><radialGradient id="radial-gradient" cx="-2.25" cy="2.7" r="0.16" gradientTransform="matrix(0, -594.66, -594.66, 0, 3233.76, -418.18)" gradientUnits="userSpaceOnUse"><stop offset="0" stop-color="#fff"/><stop offset="0.72" stop-color="#909598"/><stop offset="1" stop-color="#767c7f"/></radialGradient><clipPath id="clip-path-5" transform="translate(-1598.29 -866.36)"><path class="cls-1" d="M1649.12,918.3h0m-13.42-19.2c4.63,6.35,9,12.22,13.53,19.18h0c14.44-2.5,30,0,47.16,5.4h0c-15.65-9.18-26.83-18.66-34.81-27.38-1.16,0-2.33-.07-3.51-.07a88.15,88.15,0,0,0-22.37,2.87"/></clipPath><radialGradient id="radial-gradient-2" cx="-4.37" cy="5.17" r="0.16" gradientTransform="matrix(0, -304.09, -304.09, 0, 3251.11, -444.12)" gradientUnits="userSpaceOnUse"><stop offset="0" stop-color="#d5d9d9"/><stop offset="0.72" stop-color="#909598"/><stop offset="1" stop-color="#767c7f"/></radialGradient></defs><g class="cls-2"><g class="cls-2"><path class="cls-3" d="M1640,938.05h-5.63c-3.45,0-4.5,2.82-4.53,5.51s1.08,5.53,4.53,5.53H1640v2.41h-6.6c-4.56,0-6.8-3.87-6.8-7.94s2.24-7.94,6.8-7.94h6.6Z" transform="translate(-1598.29 -866.36)"/><path class="cls-3" d="M1641.65,929.5h3v3.2h-3Zm3,22h-3V935.62h3Z" transform="translate(-1598.29 -866.36)"/><path class="cls-3" d="M1646.09,935.62h3.12V929.5h3v6.12H1657v2.43h-4.77v9.49a1.45,1.45,0,0,0,.4,1.07,1.41,1.41,0,0,0,1.15.48H1657v2.41h-4.74a2.74,2.74,0,0,1-2-.81,3.33,3.33,0,0,1-1-2.31V938.05h-3.12Z" transform="translate(-1598.29 -866.36)"/><path class="cls-3" d="M1661.83,948.23a2.88,2.88,0,0,0,2.1.86H1669V935.62h3v16.45a4.05,4.05,0,0,1-4.21,4.32h-9.72v-2.45h8.58a2.27,2.27,0,0,0,1.88-.59,2.2,2.2,0,0,0,.47-1.51v-.34h-5.62a5.11,5.11,0,0,1-3.65-1.08,4.55,4.55,0,0,1-1.66-3.9v-10.9h3v10.64a2.37,2.37,0,0,0,.74,2" transform="translate(-1598.29 -866.36)"/><path class="cls-3" d="M1685.14,949.09v-11h4.17c3.45,0,4.53,2.82,4.53,5.51s-1.08,5.53-4.53,5.53Zm5.14,2.41c4.55,0,6.8-3.87,6.8-7.94s-2.25-7.94-6.8-7.94h-5.14V929.5h-3v22Z" transform="translate(-1598.29 -866.36)"/><path class="cls-3" d="M1711,944.29v4.8h-6c-2,0-2.92-.79-2.92-2.4s.88-2.4,2.84-2.4Zm-11.63-8.67v2.43h8.71a2.6,2.6,0,0,1,2.11.61,3.73,3.73,0,0,1,.81,2.73v.45h-6.92c-3.31,0-5.32,1.67-5.32,4.85s2,4.81,5.32,4.81H1714V941.11c0-1.6,0-2.83-1.08-4a4.09,4.09,0,0,0-3.19-1.46Z" transform="translate(-1598.29 -866.36)"/><path class="cls-3" d="M1715.68,935.62h7.39c2.11,0,3.77-.06,5.26,1.46,1.19,1.22,1.32,2.55,1.32,4.27V951.5h-3v-9.75a3.52,3.52,0,0,0-.85-2.76c-.85-.91-1.85-.94-3.1-.94h-4V951.5h-3Z" transform="translate(-1598.29 -866.36)"/><path class="cls-3" d="M1731.34,929.5h3v12.4l7.94-6.28h4.07l-8.12,6.28h2.63a4.8,4.8,0,0,1,3.5,1.28c1.29,1.29,1.32,2.69,1.32,4.54v3.79h-3v-4.08a2.88,2.88,0,0,0-1.15-2.61,3,3,0,0,0-1.79-.49h-5.42v7.18h-3Z" transform="translate(-1598.29 -866.36)"/><path class="cls-4" d="M1648.38,918.45l.74-.15c14.48-2.53,30.07,0,47.26,5.38,1,.54,1.93,1.11,2.93,1.68-18.29-5.68-34.77-8.28-50.13-5.52l.12,0c-.3-.46-.61-.92-.92-1.37" transform="translate(-1598.29 -866.36)"/><path class="cls-4" d="M1648.38,918.45c.31.45.62.91.92,1.37l-.12,0c-17.6,3.36-32.42,13.45-45.09,34.72,12.29-22.2,26.85-32.68,44.29-36.11" transform="translate(-1598.29 -866.36)"/><path class="cls-3" d="M1635.68,899.1h0c-4-5.53-8-11-12.09-17.5a66.42,66.42,0,0,0,19.6-15.24c2,6.17,6.82,17.27,18.37,29.93a90,90,0,0,0-25.9,2.81" transform="translate(-1598.29 -866.36)"/></g><g class="cls-5"><rect class="cls-6" x="1600.59" y="879.26" width="34.04" height="37.39" transform="translate(-938.95 1614.22) rotate(-87.84)"/></g><g class="cls-2"><path class="cls-7" d="M1635.65,899.12l-.05,0,.05,0" transform="translate(-1598.29 -866.36)"/></g><g class="cls-8"><rect class="cls-9" x="1651.19" y="879.11" width="29.71" height="61.68" transform="translate(-904.33 1674.16) rotate(-87.84)"/></g><g class="cls-2"><path class="cls-3" d="M1607.17,914.31a66.12,66.12,0,0,1,27.47-14.89c.32-.1.64-.21,1-.28l.05,0,0,0c4.63,6.35,9,12.22,13.53,19.18l-.11,0-.74.15c-17.44,3.43-32,13.91-44.29,36.11-1.68,3-3.32,6.29-4.92,9.79.17-.58.32-1.14.5-1.71,4.54-15.71,7-27.58,7.49-37.06a83,83,0,0,0,0-11.27" transform="translate(-1598.29 -866.36)"/><path class="cls-4" d="M1627.22,960.59c0-.56,0-1,0-1.49h.89l0,.9h0a1.93,1.93,0,0,1,1.76-1,1.63,1.63,0,0,1,1.56,1.11h0a2.1,2.1,0,0,1,.63-.71,1.86,1.86,0,0,1,1.23-.4c.75,0,1.84.48,1.84,2.38v3.22h-1V961.5c0-1.07-.4-1.7-1.21-1.7a1.34,1.34,0,0,0-1.21.9,1.57,1.57,0,0,0-.08.49v3.39h-1V961.3c0-.87-.4-1.5-1.17-1.5a1.42,1.42,0,0,0-1.26,1,1.64,1.64,0,0,0-.09.5v3.29h-1Z" transform="translate(-1598.29 -866.36)"/><path class="cls-4" d="M1640.07,962.74a1,1,0,0,1,0,.32,1.39,1.39,0,0,1-1.37.91.89.89,0,0,1-1-.94c0-1.07,1.26-1.26,2.37-1.24Zm1-1.53a2,2,0,0,0-2.13-2.23,3.91,3.91,0,0,0-1.85.48l.23.67a2.71,2.71,0,0,1,1.46-.41A1.15,1.15,0,0,1,1640,961v.1c-2.14,0-3.35.71-3.35,2a1.57,1.57,0,0,0,1.71,1.57,2,2,0,0,0,1.7-.8h0l.09.68h.91a8.47,8.47,0,0,1-.08-1.3Z" transform="translate(-1598.29 -866.36)"/><path class="cls-4" d="M1644,961.62h0a7.26,7.26,0,0,1,.49-.61l1.65-1.91h1.21l-2.15,2.26,2.45,3.22h-1.23l-1.91-2.62-.52.57v2.05h-1v-8h1Z" transform="translate(-1598.29 -866.36)"/><path class="cls-4" d="M1648.87,959.1h1v5.49h-1Zm.48-1a.61.61,0,0,1-.63-.63.63.63,0,0,1,.66-.65.64.64,0,1,1,0,1.28Z" transform="translate(-1598.29 -866.36)"/><path class="cls-4" d="M1651.86,960.59c0-.56,0-1,0-1.49h.9l.06.91h0a2.07,2.07,0,0,1,1.84-1c.77,0,2,.46,2,2.34v3.26h-1v-3.15c0-.88-.34-1.63-1.3-1.63a1.47,1.47,0,0,0-1.36,1,1.66,1.66,0,0,0-.07.47v3.29h-1Z" transform="translate(-1598.29 -866.36)"/><path class="cls-4" d="M1662.31,962.24a1.91,1.91,0,0,1-.08.54,1.45,1.45,0,0,1-1.41,1c-1.07,0-1.65-.9-1.65-2,0-1.28.69-2.08,1.67-2.08a1.46,1.46,0,0,1,1.42,1.07,1.52,1.52,0,0,1,0,.44Zm1-1.63c0-.66,0-1.11,0-1.5h-.9l0,.81h0a1.89,1.89,0,0,0-1.73-.94,2.65,2.65,0,0,0-2.54,2.89,2.48,2.48,0,0,0,2.38,2.69,2,2,0,0,0,1.78-.91h0v.6a1.66,1.66,0,0,1-1.8,1.91,3.11,3.11,0,0,1-1.63-.43l-.26.76a3.71,3.71,0,0,0,1.86.46,3.14,3.14,0,0,0,2-.66,3.18,3.18,0,0,0,.79-2.51Z" transform="translate(-1598.29 -866.36)"/><path class="cls-4" d="M1667.88,963.58a3.12,3.12,0,0,0,1.36.39c.72,0,1.08-.36,1.08-.82s-.3-.73-1-1c-1-.38-1.49-.9-1.49-1.56a1.72,1.72,0,0,1,1.92-1.61,2.59,2.59,0,0,1,1.35.35l-.23.71a2.4,2.4,0,0,0-1.15-.32c-.59,0-.92.33-.92.76s.33.67,1,.93c1,.36,1.47.83,1.47,1.65,0,1-.77,1.64-2.07,1.64a3.38,3.38,0,0,1-1.58-.37Z" transform="translate(-1598.29 -866.36)"/><path class="cls-4" d="M1673.47,961.3a1.64,1.64,0,0,1,1.56-1.61,1.44,1.44,0,0,1,1.4,1.61Zm3.9.73a2,2,0,0,0,0-.47,2.33,2.33,0,0,0-2.3-2.58,2.68,2.68,0,0,0-2.62,3,2.58,2.58,0,0,0,2.75,2.76,4.73,4.73,0,0,0,1.86-.35l-.17-.7a4.21,4.21,0,0,1-1.56.27,1.77,1.77,0,0,1-1.9-1.9Z" transform="translate(-1598.29 -866.36)"/><path class="cls-4" d="M1679,960.59a13.87,13.87,0,0,0,0-1.49h.9l.06.91h0a2.09,2.09,0,0,1,1.84-1c.79,0,2,.46,2,2.34v3.26h-1v-3.15c0-.88-.32-1.63-1.29-1.63a1.46,1.46,0,0,0-1.35,1,1.36,1.36,0,0,0-.08.47v3.29h-1Z" transform="translate(-1598.29 -866.36)"/><path class="cls-4" d="M1685.5,963.58a3,3,0,0,0,1.36.39c.72,0,1.07-.36,1.07-.82s-.3-.73-1-1c-1-.38-1.47-.9-1.47-1.56a1.72,1.72,0,0,1,1.92-1.61,2.69,2.69,0,0,1,1.36.35l-.24.71a2.4,2.4,0,0,0-1.15-.32c-.6,0-.92.33-.92.76s.32.67,1,.93c1,.36,1.46.83,1.46,1.65,0,1-.77,1.64-2.07,1.64a3.31,3.31,0,0,1-1.57-.37Z" transform="translate(-1598.29 -866.36)"/><path class="cls-4" d="M1691.09,961.3a1.65,1.65,0,0,1,1.56-1.61,1.43,1.43,0,0,1,1.39,1.61Zm3.9.73a3.73,3.73,0,0,0,0-.47,2.34,2.34,0,0,0-2.31-2.58,2.69,2.69,0,0,0-2.63,3,2.59,2.59,0,0,0,2.76,2.76,4.81,4.81,0,0,0,1.86-.35l-.19-.7a4,4,0,0,1-1.53.27,1.78,1.78,0,0,1-1.92-1.9Z" transform="translate(-1598.29 -866.36)"/><path class="cls-4" d="M1701.6,964c-1,0-1.67-.91-1.67-2.1s.52-2.14,1.7-2.14,1.67,1.17,1.67,2.09c0,1.25-.72,2.15-1.7,2.15Zm0,.73a2.71,2.71,0,0,0,2.78-2.91,2.62,2.62,0,0,0-2.69-2.81,2.7,2.7,0,0,0-2.77,2.92,2.62,2.62,0,0,0,2.68,2.8" transform="translate(-1598.29 -866.36)"/><path class="cls-4" d="M1706,964.58v-4.71h-.78v-.77h.78v-.25a2.64,2.64,0,0,1,.65-1.92,2,2,0,0,1,1.35-.49,2.32,2.32,0,0,1,.87.16l-.13.77a1.51,1.51,0,0,0-.65-.13c-.86,0-1.09.74-1.09,1.59v.27h1.35v.77H1707v4.71Z" transform="translate(-1598.29 -866.36)"/><path class="cls-4" d="M1712.31,960.59c0-.56,0-1,0-1.49h.89l0,.9h0a1.93,1.93,0,0,1,1.77-1,1.66,1.66,0,0,1,1.57,1.11h0a2.12,2.12,0,0,1,.64-.71,1.85,1.85,0,0,1,1.22-.4c.76,0,1.84.48,1.84,2.38v3.22h-1V961.5c0-1.07-.41-1.7-1.22-1.7a1.36,1.36,0,0,0-1.21.9,1.93,1.93,0,0,0-.08.49v3.39h-1V961.3c0-.87-.39-1.5-1.16-1.5a1.39,1.39,0,0,0-1.26,1,1.64,1.64,0,0,0-.08.5v3.29h-1Z" transform="translate(-1598.29 -866.36)"/><path class="cls-4" d="M1724.52,964c-1,0-1.66-.91-1.66-2.1s.5-2.14,1.7-2.14,1.67,1.17,1.67,2.09c0,1.25-.73,2.15-1.68,2.15Zm0,.73a2.7,2.7,0,0,0,2.77-2.91,2.62,2.62,0,0,0-2.69-2.81,2.7,2.7,0,0,0-2.76,2.92,2.62,2.62,0,0,0,2.68,2.8" transform="translate(-1598.29 -866.36)"/><path class="cls-4" d="M1728.84,960.59c0-.56,0-1,0-1.49h.89l.06.91h0a2.1,2.1,0,0,1,1.85-1c.77,0,2,.46,2,2.34v3.26h-1v-3.15c0-.88-.35-1.63-1.3-1.63a1.46,1.46,0,0,0-1.36,1,1.16,1.16,0,0,0-.07.47v3.29h-1Z" transform="translate(-1598.29 -866.36)"/><path class="cls-4" d="M1736.13,961.3a1.64,1.64,0,0,1,1.57-1.61,1.44,1.44,0,0,1,1.39,1.61Zm3.91.73a2,2,0,0,0,0-.47,2.33,2.33,0,0,0-2.3-2.58,2.68,2.68,0,0,0-2.63,3,2.58,2.58,0,0,0,2.74,2.76,4.85,4.85,0,0,0,1.88-.35l-.19-.7a4.05,4.05,0,0,1-1.54.27,1.77,1.77,0,0,1-1.91-1.9Z" transform="translate(-1598.29 -866.36)"/><path class="cls-4" d="M1742,959.1l1.21,3.26c.14.34.28.78.37,1.09h0l.36-1.13,1.1-3.22h1.09l-1.53,3.92a8.77,8.77,0,0,1-1.92,3.44,3,3,0,0,1-1.24.62l-.26-.83a2.66,2.66,0,0,0,.89-.49,3.23,3.23,0,0,0,.85-1.11.57.57,0,0,0,.08-.23.44.44,0,0,0-.08-.25l-2-5.07Z" transform="translate(-1598.29 -866.36)"/><polygon class="cls-4" points="151.14 73.23 151.14 69.63 150.04 69.63 150.04 69.15 152.68 69.15 152.68 69.63 151.57 69.63 151.57 73.23 151.14 73.23"/><path class="cls-4" d="M1751.62,939.58v-4.07h.66l.8,2.89.16.59c0-.14.09-.36.17-.65l.81-2.83h.59v4.07h-.43v-3.42l-1,3.42H1753l-1-3.47v3.47Z" transform="translate(-1598.29 -866.36)"/></g></g></svg>